<?xml version="1.0" encoding="iso-8859-1"?>
<!-- Uploaded to: SVG Repo, www.svgrepo.com, Generator: SVG Repo Mixer Tools -->
<svg height="800px" width="800px" version="1.1" id="Layer_1" xmlns="http://www.w3.org/2000/svg" xmlns:xlink="http://www.w3.org/1999/xlink" 
	 viewBox="0 0 512 512" xml:space="preserve">
<path style="fill:#AEBB3F;" d="M159.276,104.306c-57.738,0-104.545,46.807-104.545,104.545
	c0,123.554,201.268,294.706,201.268,294.706l21.787-167.197l-21.785-167.198C240.37,131.11,202.961,104.306,159.276,104.306z"/>
<path style="fill:#7FA339;" d="M352.727,104.306c-43.686,0-81.094,26.804-96.726,64.855l-0.002,334.396
	c0,0,201.273-171.147,201.273-294.706C457.272,151.113,410.465,104.306,352.727,104.306z"/>
<path d="M352.727,96.409c-35.241,0-67.551,16.18-88.555,42.916V8.17c0-4.512-3.657-8.17-8.17-8.17c-4.512,0-8.17,3.658-8.17,8.17
	v131.155c-21.004-26.737-53.314-42.916-88.555-42.916c-62.151,0-112.715,50.564-112.715,112.715
	c0,53.258,34.527,120.221,102.622,199.027c50.148,58.036,101.015,101.47,101.523,101.902c1.525,1.297,3.409,1.947,5.292,1.947
	c1.884,0,3.767-0.649,5.292-1.947c0.509-0.432,51.376-43.865,101.525-101.901c68.097-78.807,102.624-145.77,102.624-199.03
	C465.442,146.972,414.878,96.409,352.727,96.409z M255.999,492.975C224.446,465.004,62.901,316.51,62.901,209.124
	c0-53.141,43.233-96.375,96.375-96.375c37.446,0,71.013,21.374,86.975,54.882L116.178,297.702c-3.191,3.191-3.191,8.364,0,11.554
	c3.191,3.191,8.364,3.191,11.554,0l120.099-120.097v136.603l-62.454,62.454c-3.191,3.191-3.191,8.364,0,11.555
	c3.191,3.191,8.364,3.191,11.554,0l50.899-50.899v110.991c0,4.512,3.658,8.17,8.17,8.17c4.513,0,8.17-3.658,8.17-8.17V348.925
	l50.875,50.875c1.596,1.595,3.688,2.393,5.778,2.393c2.09,0,4.182-0.797,5.778-2.393c3.191-3.191,3.191-8.364,0-11.554
	l-62.431-62.43V189.159l120.098,120.099c1.596,1.595,3.688,2.393,5.778,2.393c2.091,0,4.182-0.797,5.778-2.393
	c3.191-3.191,3.191-8.364,0-11.555L265.752,167.63c15.961-33.507,49.528-54.881,86.975-54.881c53.141,0,96.375,43.235,96.375,96.375
	C449.101,316.463,287.552,464.996,255.999,492.975z"/>
<path d="M134.642,165.215c4.805,0,8.715-3.91,8.715-8.715s-3.91-8.715-8.715-8.715c-4.805,0-8.715,3.91-8.715,8.715
	C125.927,161.305,129.837,165.215,134.642,165.215z"/>
<path d="M106.32,199.197c-4.805,0-8.715,3.91-8.715,8.715c0,4.805,3.91,8.715,8.715,8.715s8.715-3.91,8.715-8.715
	C115.034,203.107,111.125,199.197,106.32,199.197z"/>
<path d="M345.422,309.002c-4.805,0-8.715,3.91-8.715,8.715s3.91,8.715,8.715,8.715c4.805,0,8.715-3.91,8.715-8.715
	S350.228,309.002,345.422,309.002z"/>
</svg>