<?xml version="1.0" encoding="iso-8859-1"?>
<!-- Uploaded to: SVG Repo, www.svgrepo.com, Generator: SVG Repo Mixer Tools -->
<svg height="800px" width="800px" version="1.1" id="Layer_1" xmlns="http://www.w3.org/2000/svg" xmlns:xlink="http://www.w3.org/1999/xlink" 
	 viewBox="0 0 511.999 511.999" xml:space="preserve">
<path style="fill:#7FA339;" d="M502.297,9.702L270.766,179.609L100.859,411.14c107.65,19.633,222.832-12.142,306.065-95.374
	C490.156,232.535,521.93,117.352,502.297,9.702z"/>
<path style="fill:#AEBB3F;" d="M196.233,105.075c-83.231,83.232-115.007,198.416-95.374,306.065L502.297,9.702
	C394.648-9.931,279.464,21.845,196.233,105.075z"/>
<path d="M393.355,199.994c-4.805,0-8.715,3.91-8.715,8.715s3.91,8.715,8.715,8.715s8.715-3.91,8.715-8.715
	S398.16,199.994,393.355,199.994z"/>
<path d="M166.634,239.476c-4.805,0-8.715,3.91-8.715,8.715s3.91,8.715,8.715,8.715s8.715-3.91,8.715-8.715
	S171.439,239.476,166.634,239.476z"/>
<path d="M155.74,272.157c-4.805,0-8.715,3.91-8.715,8.715c0,4.805,3.91,8.715,8.715,8.715s8.715-3.91,8.715-8.715
	C164.455,276.067,160.545,272.157,155.74,272.157z"/>
<path d="M506.249,12.322c-0.61-3.344-3.227-5.962-6.571-6.572c-114.212-20.83-231.341,15.667-313.307,97.634
	C105.418,184.335,68.823,299.58,87.996,412.449L2.393,498.052c-3.191,3.191-3.191,8.363,0,11.554
	c1.595,1.596,3.686,2.393,5.777,2.393s4.182-0.797,5.777-2.393l85.617-85.616c19.75,3.354,39.568,5.024,59.268,5.023
	c92.872-0.001,182.999-36.602,249.784-103.384C490.582,243.663,527.08,126.538,506.249,12.322z M397.061,314.075
	c-74.43,74.431-179.271,109.547-283.172,95.59l136.697-136.697h157.007c4.513,0,8.17-3.658,8.17-8.17c0-4.512-3.657-8.17-8.17-8.17
	H266.927l99.522-99.521c3.191-3.191,3.191-8.364,0-11.554c-3.192-3.191-8.364-3.191-11.555,0l-99.521,99.521V104.329
	c0-4.512-3.658-8.17-8.17-8.17s-8.17,3.658-8.17,8.17v157.084L102.334,398.11c-13.958-103.899,21.159-208.741,95.59-283.172
	C274.756,38.106,383.994,3.166,491.147,20.853C508.834,128.007,473.893,237.243,397.061,314.075z"/>
<path d="M463.602,36.848l-85.6,85.595c-3.192,3.191-3.192,8.364-0.001,11.555c1.596,1.596,3.686,2.393,5.778,2.393
	c2.091,0,4.182-0.797,5.777-2.393l85.6-85.595c3.192-3.191,3.192-8.364,0.001-11.555C471.965,33.658,466.792,33.657,463.602,36.848z
	"/>
</svg>