<?xml version="1.0" encoding="utf-8"?>
<!-- Uploaded to: SVG Repo, www.svgrepo.com, Generator: SVG Repo Mixer Tools -->
<svg width="75px" height="200px" viewBox="350 40 300 940" class="icon"  version="1.1" xmlns="http://www.w3.org/2000/svg"><path d="M632.265861 406.042296c-0.773414-88.169184-14.694864-170.924471-49.498489-252.906344-12.374622-29.389728-32.483384-68.060423-64.193354-77.34139-44.858006-13.148036-75.794562 20.108761-88.942598 58.006042-27.8429 81.208459-95.903323 601.716012 69.607251 580.833837l11.601208 20.108761c110.598187 52.592145 122.199396-283.069486 121.425982-328.700906z" fill="#1ca538" /><path d="M546.416918 918.042296c-6.187311-23.202417-9.280967-48.725076-12.374622-72.700906-3.867069-27.069486-7.734139-54.138973-11.601208-81.981873C510.066465 669.003021 502.332326 573.873112 502.332326 478.743202c0-11.601208 0.773414-23.202417 0.773414-34.803625 0-4.640483-3.093656-6.960725-6.960725-7.734139-4.640483-0.773414-10.054381 2.320242-10.054381 8.507553 0 11.601208-0.773414 23.202417-0.773413 35.577039-2.320242 97.450151-14.694864 194.900302-13.921451 293.123867 0.773414 46.404834-3.093656 92.809668 1.546828 138.441088 2.320242 24.749245 9.280967 77.34139 44.084592 77.34139 14.694864 0 29.389728-8.507553 35.57704-22.429003 5.413897-14.694864-2.320242-34.030211-6.187312-48.725076" fill="#65320b" /></svg>