<?xml version="1.0" encoding="utf-8"?>
<!-- Uploaded to: SVG Repo, www.svgrepo.com, Generator: SVG Repo Mixer Tools -->
<svg width="100px" height="200px" viewBox="300 60 400 940" class="icon"  version="1.1" xmlns="http://www.w3.org/2000/svg"><path d="M676.350453 139.987915c-84.302115-84.302115-291.577039-84.302115-375.879154 0-64.966767 64.966767-52.592145 297.76435 14.694864 375.879154 61.873112 71.154079-44.858006 112.145015 29.389728 186.39275 64.966767 64.966767 223.516616 64.966767 288.483384 0 73.47432-73.47432-30.936556-121.425982 29.389728-186.39275 64.966767-69.607251 78.888218-310.912387 13.92145-375.879154z" fill="#1ca538" /><path d="M612.1571 393.667674c5.413897-5.413897 5.413897-14.694864 0-20.882176-5.413897-5.413897-14.694864-5.413897-20.882176 0L512.386707 452.44713V330.247734c0-12.374622-10.054381-21.655589-21.655589-21.655589-12.374622 0-21.655589 10.054381-21.655589 21.655589v88.169184l-116.785499-67.287009c-6.960725-3.867069-16.241692-1.546828-20.108761 5.413898-3.867069 6.960725-1.546828 16.241692 5.413897 20.108761l131.480363 75.794562v150.042296L431.178248 564.592145c-5.413897-5.413897-14.694864-5.413897-20.882175 0-5.413897 5.413897-5.413897 14.694864 0 20.882175l58.006042 58.006043v357.31722h44.084592V697.619335l60.326284-34.803625c6.960725-3.867069 9.280967-13.148036 5.413897-20.108761-3.867069-6.960725-13.148036-9.280967-20.108761-5.413898l-45.63142 26.296073v-170.151058l99.770393-99.770392z" fill="#65320b" /></svg>