<?xml version="1.0" encoding="utf-8"?>
<!-- Uploaded to: SVG Repo, www.svgrepo.com, Generator: SVG Repo Mixer Tools -->
<svg width="100px" height="200px" viewBox="300 60 400 940" class="icon"  version="1.1" xmlns="http://www.w3.org/2000/svg"><path d="M500.012085 58.779456c-44.084592 0-190.259819 426.924471-190.259819 692.978852 0 12.374622 92.036254 37.897281 190.259819 37.897281 98.223565 0 190.259819-25.522659 190.259818-37.897281C689.498489 464.048338 544.096677 58.779456 500.012085 58.779456z" fill="#1ca538" /><path d="M629.945619 640.386707L616.024169 626.465257l-77.34139 64.966767-7.734139-119.879154 64.966768-62.646526-8.507553-7.734139-58.006042 49.49849-14.694864-239.758308h-25.522659l-17.015106 242.851963-61.099698-52.592145-8.507552 8.507553 68.060422 65.740182-8.507552 118.332326L383.226586 626.465257l-13.92145 13.92145 90.489426 100.543807-17.78852 254.453172h115.238671l-15.468278-256.773414 88.169184-98.223565z" fill="#65320b" /></svg>