<?xml version="1.0" encoding="iso-8859-1"?>

<!DOCTYPE svg PUBLIC "-//W3C//DTD SVG 1.1//EN" "http://www.w3.org/Graphics/SVG/1.1/DTD/svg11.dtd">
<!-- Uploaded to: SVG Repo, www.svgrepo.com, Generator: SVG Repo Mixer Tools -->
<svg height="400px" width="400px" version="1.1" id="_x36_" xmlns="http://www.w3.org/2000/svg" xmlns:xlink="http://www.w3.org/1999/xlink" 
	 viewBox="0 0 512 300"  xml:space="preserve">
<g>
	<g>
		<g>
			<path style="fill:#4786A1;" d="M221.99,308.864h281.658c6.43,0,10.424-6.949,7.229-12.5l-68.153-118.035l-18.73,27.776
				l-30.811-45.669l-30.812,45.669l-30.831-45.669l-8.447,12.52l-22.365,33.148l-18.232-27.038l-67.734,117.296
				C211.566,301.915,215.579,308.864,221.99,308.864z"/>
			<path style="fill:#EDEDEC;" d="M442.728,178.358l-18.754,27.731l-30.79-45.62l-30.79,45.62l-30.857-45.62l-8.446,12.502
				l-18.288,27.133l-4.056,5.985l-18.221-27l5.054-8.844l2.793-4.788l14.165-24.606l46.884-81.199
				c1.795-3.059,4.456-5.054,7.448-5.985c5.586-1.729,12.037,0.266,15.362,5.985L387,81.731l48.28,83.726L442.728,178.358z"/>
		</g>
		<path style="opacity:0.07;fill:#040000;" d="M401.298,308.835H222.008c-6.451,0-10.441-6.916-7.249-12.502l67.766-117.243
			l5.054-8.844l2.793-4.788l14.165-24.606l5.985,10.374l12.569,21.746L401.298,308.835z"/>
		<g>
			<path style="fill:#4786A1;" d="M350.158,308.835H10.066c-7.315,0-11.97-7.382-9.31-13.899c0.2-0.399,0.333-0.798,0.599-1.197
				l81.731-141.583l22.079,32.653l37.175-55.13l37.241,55.13l37.175-55.13l37.241,55.13l22.611-33.584l10.973,19.02l17.224,29.859
				l54.066,93.634C362.727,300.456,357.938,308.835,350.158,308.835z"/>
			<path style="fill:#FFFFFF;" d="M276.607,151.225l-22.611,33.584l-37.241-55.13l-37.175,55.13l-37.241-55.13l-21.813,32.32
				l-15.362,22.811l-22.079-32.653l9.51-16.426l0.599-1.064l45.022-78.007l28.13-48.679c6.118-10.64,21.414-10.64,27.532,0
				l5.453,9.443l68.297,118.307L276.607,151.225z"/>
		</g>
	</g>
	<polygon style="fill:none;" points="362.369,206.105 362.387,206.079 343.462,178.1 	"/>
	<polygon style="fill:none;" points="105.164,184.809 142.339,129.679 120.526,161.999 	"/>
	<path style="opacity:0.06;fill:#FFFFFF;" d="M267.628,135.73L199.331,17.423l-5.453-9.443c-6.118-10.64-21.414-10.64-27.532,0
		l-28.13,48.679l-45.022,78.007l-0.599,1.064l-9.51,16.426L1.355,293.739c-0.266,0.399-0.399,0.798-0.599,1.197
		c-2.66,6.517,1.995,13.899,9.31,13.899h91.53l168.627-168.627L267.628,135.73z M105.164,184.809l15.362-22.811l21.813-32.32
		L105.164,184.809z"/>
</g>
</svg>